<?xml version="1.0" encoding="UTF-8" standalone="no"?>
<!-- Created with Inkscape (http://www.inkscape.org/) -->

<svg
   width="837.85443"
   height="98.171516"
   viewBox="0 0 221.68231 25.974546"
   version="1.1"
   id="svg5"
   xml:space="preserve"
   xmlns="http://www.w3.org/2000/svg"
   xmlns:svg="http://www.w3.org/2000/svg"><defs
     id="defs2" /><g
     id="layer1"
     transform="translate(267.86234,5.2026934)"><g
       aria-label="stack overflowed"
       id="text63-8-9-7"
       style="font-size:25.7226px;font-family:'DIN Alternate';-inkscape-font-specification:'DIN Alternate';letter-spacing:-1.05833px;word-spacing:-2.91042px;stroke-width:0.0133972"><path
         d="m -226.30721,16.09322 c 3.47255,0 5.78759,-1.903472 5.78759,-4.501455 0,-2.3407569 -1.51764,-3.6783321 -4.45001,-4.0641711 l -1.51764,-0.2057808 c -1.10607,-0.1543357 -1.41474,-0.5401747 -1.41474,-1.2604075 0,-0.6687876 0.51445,-1.1317944 1.80058,-1.1317944 1.1318,0 2.26359,0.5401746 3.11244,1.3890204 l 2.18642,-2.2378663 c -1.3633,-1.3375752 -2.67515,-2.1092532 -5.50464,-2.1092532 -3.21532,0 -5.24741,1.800582 -5.24741,4.3985647 0,2.4436471 1.49191,3.7812222 4.5529,4.1670612 l 1.46619,0.180058 c 0.95174,0.128613 1.3633,0.463007 1.3633,1.131795 0,0.7974 -0.51445,1.28613 -2.00636,1.28613 -1.46619,0 -2.62371,-0.668788 -3.57545,-1.723414 l -2.23786,2.263588 c 1.38902,1.543357 3.08671,2.417925 5.68469,2.417925 z"
         style="letter-spacing:-0.529167px"
         id="path614" /><path
         d="M -211.66008,15.784549 V 12.82645 h -2.46937 V 5.2382824 h 2.67515 V 2.2801833 h -2.67515 v -3.6526094 h -3.42111 v 2.21214372 c 0,0.92601358 -0.30867,1.44046568 -1.33757,1.44046568 h -0.95174 v 2.9580991 h 1.90347 v 6.6107086 c 0,2.57226 1.38902,3.935558 4.01273,3.935558 z"
         style="letter-spacing:-0.529167px"
         id="path616" /><path
         d="M -197.24443,15.784549 V 12.82645 h -1.26041 V 6.9102514 c 0,-3.1896025 -1.95492,-4.9387393 -5.76186,-4.9387393 -2.82949,0 -4.37285,0.9774588 -5.45319,2.5722601 l 2.26358,2.0063628 c 0.59162,-0.8231232 1.38902,-1.5948012 2.90666,-1.5948012 1.5948,0 2.23786,0.8231232 2.23786,2.1349758 v 0.8488459 h -2.13497 c -3.57544,0 -5.78759,1.3632978 -5.78759,4.2185065 0,2.340757 1.49191,3.935558 4.19279,3.935558 2.05781,0 3.54972,-0.926014 3.96128,-2.675151 h 0.15433 c 0.23151,1.440466 1.20897,2.36648 2.57226,2.36648 z m -7.38239,-2.340757 c -1.13179,0 -1.77486,-0.463007 -1.77486,-1.440466 v -0.385839 c 0,-0.977458 0.77168,-1.517633 2.23787,-1.517633 h 1.85202 v 1.594801 c 0,1.234685 -1.05462,1.749137 -2.31503,1.749137 z"
         style="letter-spacing:-0.529167px"
         id="path618" /><path
         d="m -189.77391,16.09322 c 2.64942,0 4.57862,-1.157517 5.47891,-3.729777 l -2.9581,-1.28613 c -0.38584,1.080349 -1.00318,2.006363 -2.52081,2.006363 -1.54336,0 -2.34076,-1.08035 -2.34076,-2.778041 V 7.7848199 c 0,-1.6976917 0.7974,-2.8037635 2.34076,-2.8037635 1.33757,0 2.08353,0.8231232 2.31503,1.8520272 l 3.08671,-1.3375752 c -0.7974,-2.2121437 -2.67515,-3.5239963 -5.40174,-3.5239963 -4.06417,0 -6.30204,2.7265957 -6.30204,7.0479926 0,4.3213973 2.23787,7.0737153 6.30204,7.0737153 z"
         style="letter-spacing:-0.529167px"
         id="path620" /><path
         d="m -182.45773,15.784549 h 3.80694 v -3.806945 l 1.6977,-1.903473 3.03526,5.710418 h 4.52718 l -5.01591,-8.3341229 4.50146,-5.1702428 h -4.21851 l -2.70087,3.2153251 -1.67197,2.4950923 h -0.15434 V -3.2501759 h -3.80694 z"
         style="letter-spacing:-0.529167px"
         id="path622" /><path
         d="m -160.61576,16.09322 c 3.54971,0 5.99336,-2.726596 5.99336,-6.9451023 0,-4.2185065 -2.44365,-6.9451022 -5.99336,-6.9451022 -3.54972,0 -5.99337,2.7265957 -5.99337,6.9451022 0,4.2185063 2.44365,6.9451023 5.99337,6.9451023 z m 0,-1.826305 c -2.21215,0 -3.78123,-1.363298 -3.78123,-4.167061 V 8.1963815 c 0,-2.8037635 1.56908,-4.1670614 3.78123,-4.1670614 2.21214,0 3.78122,1.3632979 3.78122,4.1670614 v 1.9034725 c 0,2.803763 -1.56908,4.167061 -3.78122,4.167061 z"
         style="font-family:'IBM Plex Sans';-inkscape-font-specification:'IBM Plex Sans';letter-spacing:-0.529167px"
         id="path624" /><path
         d="m -146.63743,15.784549 4.68151,-13.2728623 h -1.98064 l -2.36648,6.5849858 -1.44046,4.5271775 h -0.12862 l -1.44046,-4.5271775 -2.31503,-6.5849858 h -2.05781 l 4.65579,13.2728623 z"
         style="font-family:'IBM Plex Sans';-inkscape-font-specification:'IBM Plex Sans';letter-spacing:-0.529167px"
         id="path626" /><path
         d="m -135.05132,16.09322 c 2.49509,0 4.39856,-1.234685 5.24741,-3.035267 l -1.46619,-1.054627 c -0.69451,1.466189 -1.98064,2.289312 -3.65261,2.289312 -2.46937,0 -3.93556,-1.723414 -3.93556,-4.012726 V 9.6625697 h 9.54309 V 8.6851109 c 0,-3.7554997 -2.18642,-6.4820954 -5.73614,-6.4820954 -3.60117,0 -5.96765,2.7265957 -5.96765,6.9451022 0,4.2185063 2.36648,6.9451023 5.96765,6.9451023 z m 0,-12.1667903 c 2.10925,0 3.52399,1.5690787 3.52399,3.9098354 v 0.2829486 h -7.33094 V 7.9391555 c 0,-2.3150341 1.56908,-4.0127258 3.80695,-4.0127258 z"
         style="font-family:'IBM Plex Sans';-inkscape-font-specification:'IBM Plex Sans';letter-spacing:-0.529167px"
         id="path628" /><path
         d="M -124.39116,15.784549 V 6.7816384 c 0,-1.2604074 1.33757,-2.2121436 3.54972,-2.2121436 h 1.20896 V 2.5116867 h -0.7974 c -2.1607,0 -3.36966,1.1832396 -3.83267,2.4436471 h -0.12861 V 2.5116867 h -2.05781 V 15.784549 Z"
         style="font-family:'IBM Plex Sans';-inkscape-font-specification:'IBM Plex Sans';letter-spacing:-0.529167px"
         id="path630" /><path
         d="m -116.71486,15.784549 h 2.05781 V 4.3122687 h 2.85521 v -1.800582 h -2.85521 v -3.9612806 h 2.85521 v -1.800582 h -2.00637 c -1.95491,0 -2.90665,1.2604074 -2.90665,3.08671208 V 2.5116867 h -2.1607 v 1.800582 h 2.1607 z"
         style="font-family:'IBM Plex Sans';-inkscape-font-specification:'IBM Plex Sans';letter-spacing:-0.529167px"
         id="path632" /><path
         d="m -105.61743,15.784549 v -1.800582 h -1.95491 V -3.2501759 h -2.05781 V 13.649573 c 0,1.234685 0.77168,2.134976 2.18642,2.134976 z"
         style="font-family:'IBM Plex Sans';-inkscape-font-specification:'IBM Plex Sans';letter-spacing:-0.529167px"
         id="path634" /><path
         d="m -98.146877,16.09322 c 3.549719,0 5.993366,-2.726596 5.993366,-6.9451023 0,-4.2185065 -2.443647,-6.9451022 -5.993366,-6.9451022 -3.549723,0 -5.993363,2.7265957 -5.993363,6.9451022 0,4.2185063 2.44364,6.9451023 5.993363,6.9451023 z m 0,-1.826305 c -2.212143,0 -3.781223,-1.363298 -3.781223,-4.167061 V 8.1963815 c 0,-2.8037635 1.56908,-4.1670614 3.781223,-4.1670614 2.212144,0 3.781223,1.3632979 3.781223,4.1670614 v 1.9034725 c 0,2.803763 -1.569079,4.167061 -3.781223,4.167061 z"
         style="font-family:'IBM Plex Sans';-inkscape-font-specification:'IBM Plex Sans';letter-spacing:-0.529167px"
         id="path636" /><path
         d="m -87.255252,15.784549 h 2.495093 l 1.852027,-6.3792053 1.131794,-4.0384483 h 0.05145 l 1.157517,4.0384483 1.852027,6.3792053 h 2.546537 L -72.64481,2.5116867 h -1.929195 l -1.440466,5.73614 -1.363298,5.8133073 h -0.05145 l -1.646247,-5.8133073 -1.723414,-5.73614 h -1.826304 l -1.67197,5.73614 -1.620523,5.8133073 h -0.05145 l -1.414743,-5.8133073 -1.414743,-5.73614 h -2.006363 z"
         style="font-family:'IBM Plex Sans';-inkscape-font-specification:'IBM Plex Sans';letter-spacing:-0.529167px"
         id="path638" /><path
         d="m -65.328628,16.09322 c 2.495092,0 4.398565,-1.234685 5.24741,-3.035267 l -1.466188,-1.054627 c -0.69451,1.466189 -1.98064,2.289312 -3.652609,2.289312 -2.46937,0 -3.935558,-1.723414 -3.935558,-4.012726 V 9.6625697 h 9.543085 V 8.6851109 c 0,-3.7554997 -2.186421,-6.4820954 -5.73614,-6.4820954 -3.601164,0 -5.967644,2.7265957 -5.967644,6.9451022 0,4.2185063 2.36648,6.9451023 5.967644,6.9451023 z m 0,-12.1667903 c 2.109253,0 3.523996,1.5690787 3.523996,3.9098354 v 0.2829486 h -7.330941 V 7.9391555 c 0,-2.3150341 1.569079,-4.0127258 3.806945,-4.0127258 z"
         style="font-family:'IBM Plex Sans';-inkscape-font-specification:'IBM Plex Sans';letter-spacing:-0.529167px"
         id="path640" /><path
         d="m -48.237825,15.784549 h 2.057808 V -3.2501759 h -2.057808 v 7.9225611 h -0.10289 c -0.694511,-1.6719691 -2.057809,-2.4693697 -3.884113,-2.4693697 -3.318216,0 -5.401746,2.7008731 -5.401746,6.9451022 0,4.2442293 2.08353,6.9451023 5.401746,6.9451023 1.826304,0 3.086712,-0.823123 3.884113,-2.46937 h 0.10289 z m -3.421106,-1.543356 c -2.315034,0 -3.7555,-1.594802 -3.7555,-3.961281 V 8.0163233 c 0,-2.3664793 1.440466,-3.9612806 3.7555,-3.9612806 1.87775,0 3.421106,1.0803493 3.421106,2.5465375 V 11.54032 c 0,1.723414 -1.543356,2.700873 -3.421106,2.700873 z"
         style="font-family:'IBM Plex Sans';-inkscape-font-specification:'IBM Plex Sans';letter-spacing:-0.529167px"
         id="path642" /></g><path
       d="m -241.26548,14.783214 v 5.91943 h 3.20416 v -9.1236 h -28 v 9.19281 h 3.20417 v -5.98864 z"
       fill="#bcbbbb"
       id="path496-6-3-7-0"
       style="fill:#afaeb1;fill-opacity:1;stroke:none;stroke-width:0;stroke-dasharray:none;stroke-opacity:0" /><g
       id="g16883-6-2"
       transform="translate(-309.36299,-89.737593)"
       style="fill:#f27530;fill-opacity:1"><g
         id="g16871-2-4"
         style="fill:#f27530;fill-opacity:1"><path
           style="fill:#f27530;fill-opacity:1;stroke-width:0.372111;stroke-dasharray:none"
           d="m 41.500649,87.149303 13.308809,7.728404 1.51818,-2.614404 -13.308809,-7.728404 z"
           id="path16814-7-8" /><path
           style="fill:#f27530;fill-opacity:1;stroke-width:0.263122;stroke-dasharray:none"
           d="m 47.827364,90.598612 1.04705,7.677178 3.016235,-0.10284 -1.04705,-7.67718 z"
           id="path16814-8-0-3" /></g><g
         id="g16875-3-9"
         style="fill:#f27530;fill-opacity:1"><path
           style="fill:#f27530;fill-opacity:1;stroke-width:0.372111;stroke-dasharray:none"
           d="m 73.102705,87.149303 -13.308808,7.728404 -1.51818,-2.614404 13.308808,-7.728404 z"
           id="path16855-9-0" /><path
           style="fill:#f27530;fill-opacity:1;stroke-width:0.263122;stroke-dasharray:none"
           d="m 66.775991,90.598612 -1.04705,7.677178 -3.016235,-0.10284 1.04705,-7.67718 z"
           id="path16857-9-5" /></g></g></g></svg>
