<?xml version="1.0" standalone="no"?>
<!DOCTYPE svg PUBLIC "-//W3C//DTD SVG 20010904//EN"
 "http://www.w3.org/TR/2001/REC-SVG-20010904/DTD/svg10.dtd">
<svg version="1.0" xmlns="http://www.w3.org/2000/svg"
 width="952.000000pt" height="952.000000pt" viewBox="0 0 952.000000 952.000000"
 preserveAspectRatio="xMidYMid meet">
<metadata>
Created by potrace 1.14, written by Peter Selinger 2001-2017
</metadata>
<g transform="translate(0.000000,952.000000) scale(0.100000,-0.100000)"
fill="#000000" stroke="none">
<path d="M360 8505 c-52 -91 -101 -177 -109 -193 -8 -15 -18 -28 -23 -30 -4
-2 -8 -8 -8 -13 0 -4 -19 -41 -43 -81 -24 -40 -46 -80 -50 -88 -4 -8 -16 -28
-26 -45 -11 -16 -29 -47 -40 -67 -40 -72 -46 -83 -55 -89 -12 -9 2 -29 20 -29
8 0 14 -4 14 -10 0 -5 6 -10 14 -10 7 0 19 -7 26 -15 7 -9 15 -13 17 -11 3 3
36 -15 74 -40 38 -24 69 -41 69 -37 0 3 10 -2 22 -13 13 -11 34 -26 48 -32 14
-7 39 -20 55 -31 17 -10 46 -27 66 -39 20 -11 146 -84 279 -161 133 -78 244
-141 248 -141 3 0 13 -6 21 -14 9 -7 36 -24 61 -37 25 -13 52 -29 60 -35 8 -6
40 -25 70 -41 30 -17 95 -53 143 -82 49 -28 93 -51 98 -51 5 0 9 -3 9 -7 0 -5
10 -13 23 -19 12 -6 78 -43 145 -82 68 -40 128 -72 132 -72 5 0 10 -3 12 -8 2
-4 42 -30 91 -57 91 -52 96 -59 102 -128 2 -23 5 -42 5 -42 4 0 20 -112 25
-170 2 -16 4 -30 5 -30 1 0 3 -18 5 -40 2 -22 6 -51 8 -65 2 -14 8 -52 12 -85
4 -33 9 -67 10 -76 2 -9 6 -40 10 -70 3 -30 8 -65 10 -79 3 -14 7 -47 10 -75
3 -27 8 -57 10 -65 2 -8 7 -40 10 -70 3 -30 8 -66 10 -80 6 -32 16 -107 20
-145 2 -16 6 -47 9 -67 3 -21 8 -53 10 -70 15 -111 18 -136 22 -158 2 -14 6
-49 10 -78 3 -29 7 -61 9 -70 2 -10 6 -45 10 -77 4 -33 9 -69 11 -80 2 -11 6
-40 9 -65 3 -25 8 -56 10 -70 2 -14 7 -49 10 -79 4 -30 9 -63 11 -75 4 -24 12
-77 19 -129 2 -21 7 -41 9 -46 3 -5 36 -7 73 -6 38 2 158 6 268 10 206 7 422
15 510 18 49 2 50 3 49 32 -1 17 -4 48 -8 70 -3 22 -8 58 -10 80 -3 22 -7 57
-10 78 -3 20 -8 53 -11 72 -3 19 -8 52 -11 73 -4 20 -8 51 -9 67 -1 17 -5 50
-9 75 -3 25 -8 61 -11 80 -2 19 -6 46 -9 60 -2 14 -10 66 -16 115 -7 50 -13
99 -15 110 -1 11 -6 47 -9 80 -4 33 -9 67 -11 75 -2 8 -7 42 -11 75 -10 82
-12 100 -14 100 -1 0 -3 16 -5 35 -6 56 -14 107 -20 142 -3 18 -8 51 -10 73
-2 22 -7 61 -10 88 -8 52 -2 56 35 27 14 -11 28 -20 31 -20 3 0 66 -35 140
-78 74 -43 161 -94 194 -112 33 -18 62 -36 65 -39 3 -3 19 -13 35 -21 17 -8
54 -30 82 -48 29 -18 63 -36 75 -42 13 -5 43 -23 68 -39 25 -17 49 -31 53 -31
4 0 20 -8 35 -19 63 -44 275 -161 282 -156 12 7 74 119 72 128 -1 4 3 7 8 7 6
0 14 10 19 23 5 12 36 68 70 125 34 57 61 108 61 113 0 5 5 9 10 9 6 0 10 7
10 15 0 8 5 15 11 15 5 0 8 4 4 9 -3 5 2 16 10 24 8 9 15 18 15 20 0 3 27 52
61 109 34 57 71 121 84 144 l23 41 -42 21 c-22 12 -48 26 -56 32 -14 9 -405
235 -563 326 -38 21 -81 47 -95 56 -15 10 -40 24 -57 33 -16 9 -39 21 -50 28
-11 6 -90 52 -175 101 -85 49 -162 95 -171 103 -9 7 -19 10 -22 6 -4 -3 -7 -1
-7 5 0 7 -4 12 -8 12 -5 0 -98 52 -208 116 -249 146 -376 220 -434 252 -52 29
-107 61 -135 80 -11 6 -29 17 -40 22 -11 6 -42 24 -70 41 -27 16 -58 33 -67
36 -10 3 -18 9 -18 14 0 5 -4 9 -9 9 -5 0 -71 36 -147 81 -77 44 -157 91 -180
104 -22 12 -51 29 -65 36 -13 8 -26 17 -29 20 -3 3 -21 14 -40 24 -19 10 -52
27 -72 38 -21 10 -38 23 -38 28 0 5 -8 9 -19 9 -10 0 -24 7 -31 15 -7 8 -18
15 -25 15 -8 0 -15 3 -17 8 -3 7 -69 45 -115 67 -13 5 -23 13 -23 18 0 4 -5 7
-10 7 -6 0 -40 18 -76 40 -36 22 -67 40 -69 40 -2 0 -33 18 -69 40 -36 22 -70
40 -76 40 -5 0 -10 4 -10 9 0 5 -8 11 -17 14 -10 3 -39 19 -65 34 -98 59 -141
83 -149 83 -5 0 -9 5 -9 10 0 6 -4 10 -9 10 -10 0 -279 153 -298 170 -7 5 -16
10 -20 10 -4 0 -28 14 -53 30 -25 16 -47 30 -50 30 -3 0 -48 -74 -100 -165z"/>
<path d="M9030 8650 c-14 -11 -28 -20 -31 -20 -4 0 -68 -36 -143 -80 -76 -44
-141 -80 -146 -80 -6 0 -10 -4 -10 -8 0 -4 -15 -15 -32 -23 -18 -9 -95 -52
-172 -97 -76 -45 -142 -82 -147 -82 -5 0 -9 -4 -9 -10 0 -5 -5 -10 -11 -10 -8
0 -74 -37 -179 -100 -8 -5 -53 -31 -100 -58 -186 -107 -287 -165 -325 -189
-22 -13 -48 -26 -57 -30 -10 -3 -18 -9 -18 -14 0 -5 -4 -9 -9 -9 -8 0 -261
-143 -301 -170 -8 -6 -22 -13 -30 -17 -8 -4 -17 -9 -20 -13 -3 -3 -31 -19 -62
-35 -32 -17 -58 -33 -58 -37 0 -5 -9 -8 -19 -8 -11 0 -21 -4 -23 -8 -4 -10
-146 -92 -159 -92 -5 0 -9 -4 -9 -9 0 -5 -10 -13 -22 -17 -13 -4 -45 -21 -73
-38 -27 -18 -57 -35 -65 -39 -8 -4 -28 -16 -45 -26 -16 -11 -46 -28 -65 -39
-59 -32 -102 -57 -183 -106 -43 -25 -83 -46 -88 -46 -5 0 -9 -4 -9 -10 0 -5
-4 -10 -9 -10 -7 0 -421 -237 -609 -349 -29 -17 -57 -31 -62 -31 -6 0 -10 -4
-10 -8 0 -4 -12 -13 -27 -20 -16 -6 -68 -36 -118 -66 -49 -29 -93 -52 -97 -49
-5 2 -8 0 -8 -5 0 -5 -50 -38 -112 -73 -62 -35 -128 -73 -148 -84 -99 -57
-150 -91 -150 -100 0 -6 11 -26 23 -45 20 -30 48 -77 101 -175 6 -11 14 -22
17 -25 3 -3 19 -30 35 -60 37 -68 173 -302 226 -389 21 -34 38 -67 38 -72 0
-5 4 -9 9 -9 8 0 125 65 181 100 8 5 38 22 65 38 28 16 79 45 113 65 35 21 68
37 73 37 5 0 9 5 9 10 0 6 4 10 9 10 5 0 56 27 113 61 57 34 121 71 143 84
173 98 362 208 370 216 19 19 27 8 21 -33 -3 -24 -8 -61 -11 -83 -2 -22 -7
-57 -11 -78 -3 -20 -7 -47 -8 -60 -6 -43 -18 -132 -22 -162 -3 -16 -7 -48 -9
-70 -4 -36 -12 -92 -20 -135 -2 -8 -6 -42 -10 -75 -11 -98 -25 -200 -32 -230
-2 -11 -6 -38 -9 -60 -11 -96 -13 -112 -19 -156 -3 -26 -8 -57 -10 -69 -2 -12
-7 -48 -11 -79 -3 -31 -8 -63 -9 -72 -4 -19 -16 -112 -21 -154 -1 -16 -3 -30
-4 -30 -1 0 -3 -16 -5 -36 l-3 -36 67 -1 c36 -1 118 -4 181 -6 117 -4 474 -17
588 -20 67 -3 73 1 77 43 3 28 11 90 22 156 3 22 7 51 8 65 1 14 5 43 8 65 9
59 19 127 22 155 3 29 14 104 20 140 2 14 7 48 10 75 3 28 10 77 15 110 5 33
12 85 15 116 3 31 8 67 10 80 3 13 8 44 11 69 3 25 7 56 9 70 5 29 11 74 20
145 3 28 8 61 10 75 6 42 24 172 30 220 6 46 9 63 19 135 4 22 8 58 11 80 11
91 15 122 20 150 12 77 14 93 19 135 8 66 17 123 22 141 3 13 149 103 188 118
6 2 18 9 26 16 8 7 35 24 60 38 69 38 333 190 360 207 23 14 181 104 220 126
19 10 37 21 40 24 3 3 14 10 25 16 92 50 261 150 263 156 2 5 7 8 12 8 4 0 62
32 129 70 66 39 125 70 131 70 5 0 10 3 10 8 0 4 21 18 48 32 42 22 202 115
242 140 8 5 48 28 88 50 l72 42 -22 41 c-13 23 -26 44 -30 45 -5 2 -8 8 -8 13
0 8 -35 70 -130 229 -75 126 -100 171 -100 180 0 5 -4 10 -8 10 -5 0 -14 16
-22 35 -8 19 -17 35 -21 35 -4 0 -9 8 -13 18 -3 9 -19 40 -36 67 -17 28 -34
59 -39 70 -16 39 -34 45 -61 25z"/>
<path d="M817 3624 c-3 -4 -66 -7 -139 -8 l-133 -1 0 -1380 0 -1380 480 0 480
0 2 885 c1 487 2 892 2 900 1 13 368 15 3247 13 1785 0 3248 -4 3251 -7 3 -3
6 -404 6 -891 l0 -885 482 0 482 0 -1 1373 -1 1372 -473 0 c-259 0 -472 4
-472 8 0 5 -5 5 -11 1 -16 -10 -469 -11 -469 -1 0 5 -5 5 -11 1 -15 -9 -469
-11 -469 -2 0 4 -7 5 -15 1 -24 -9 -1105 -9 -1105 0 0 5 -5 5 -11 1 -16 -10
-629 -11 -629 -1 0 5 -5 5 -11 1 -16 -10 -629 -11 -629 -1 0 5 -5 5 -11 1 -15
-9 -629 -11 -629 -2 0 4 -7 5 -16 1 -24 -9 -1104 -9 -1104 0 0 5 -5 5 -11 1
-16 -10 -469 -11 -469 -1 0 5 -5 5 -11 1 -15 -9 -469 -11 -469 -2 0 4 -7 5
-15 1 -24 -9 -1105 -9 -1108 0 -1 5 -6 5 -10 1z"/>
</g>
</svg>
